<svg width="222" height="45" viewBox="0 0 222 45" fill="none" xmlns="http://www.w3.org/2000/svg">
<path d="M57.7549 30.7623V14.7623H61.6221V27.6216H68.2783V30.7623H57.7549ZM72.9131 30.7623L68.2568 14.7623H72.5303L74.9443 25.2466H75.0771L77.835 14.7623H81.3193L84.0771 25.2701H84.21L86.6318 14.7623H90.8975L86.249 30.7623H82.5225L79.6396 21.0591H79.5146L76.6318 30.7623H72.9131ZM100.95 19.5591C100.898 18.9862 100.666 18.5409 100.255 18.2232C99.8486 17.9003 99.2679 17.7388 98.5127 17.7388C98.0127 17.7388 97.596 17.8039 97.2627 17.9341C96.9294 18.0644 96.6794 18.244 96.5127 18.4732C96.346 18.6972 96.2601 18.955 96.2549 19.2466C96.2445 19.4862 96.2913 19.6972 96.3955 19.8795C96.5049 20.0617 96.6611 20.2232 96.8643 20.3638C97.0726 20.4992 97.3226 20.619 97.6143 20.7232C97.9059 20.8274 98.234 20.9185 98.5986 20.9966L99.9736 21.3091C100.765 21.481 101.463 21.7102 102.067 21.9966C102.677 22.2831 103.187 22.6242 103.599 23.0201C104.015 23.4159 104.33 23.8716 104.544 24.3873C104.757 24.9029 104.867 25.481 104.872 26.1216C104.867 27.1321 104.612 27.9992 104.106 28.7232C103.601 29.4472 102.875 30.0019 101.927 30.3873C100.984 30.7727 99.846 30.9654 98.5127 30.9654C97.1742 30.9654 96.0075 30.7649 95.0127 30.3638C94.0179 29.9628 93.2445 29.3534 92.6924 28.5357C92.1403 27.718 91.8564 26.6841 91.8408 25.4341H95.5439C95.5752 25.9498 95.7132 26.3795 95.958 26.7232C96.2028 27.067 96.5387 27.3274 96.9658 27.5045C97.3981 27.6815 97.8981 27.7701 98.4658 27.7701C98.9867 27.7701 99.4294 27.6998 99.7939 27.5591C100.164 27.4185 100.448 27.2232 100.646 26.9732C100.843 26.7232 100.945 26.4367 100.95 26.1138C100.945 25.8117 100.851 25.5539 100.669 25.3404C100.487 25.1216 100.205 24.9341 99.8252 24.7779C99.4502 24.6164 98.971 24.468 98.3877 24.3326L96.7158 23.942C95.3304 23.6242 94.2393 23.1112 93.4424 22.4029C92.6455 21.6894 92.2497 20.7258 92.2549 19.5123C92.2497 18.5227 92.5153 17.6555 93.0518 16.9107C93.5882 16.1659 94.3304 15.5852 95.2783 15.1685C96.2262 14.7519 97.307 14.5435 98.5205 14.5435C99.7601 14.5435 100.836 14.7545 101.747 15.1763C102.664 15.593 103.375 16.1789 103.88 16.9341C104.385 17.6894 104.643 18.5644 104.653 19.5591H100.95ZM118.403 14.7623H120.341V26.1998C120.341 27.2206 120.153 28.0878 119.778 28.8013C119.403 29.5149 118.875 30.0565 118.192 30.4263C117.51 30.7961 116.705 30.981 115.778 30.981C114.903 30.981 114.125 30.8222 113.442 30.5045C112.76 30.1815 112.224 29.7232 111.833 29.1295C111.442 28.5357 111.247 27.83 111.247 27.0123H113.153C113.153 27.4654 113.265 27.8612 113.489 28.1998C113.718 28.5331 114.031 28.7935 114.427 28.981C114.823 29.1685 115.273 29.2623 115.778 29.2623C116.336 29.2623 116.81 29.1451 117.2 28.9107C117.591 28.6763 117.888 28.3326 118.091 27.8795C118.299 27.4211 118.403 26.8612 118.403 26.1998V14.7623ZM128.849 31.0123C127.765 31.0123 126.815 30.7545 125.997 30.2388C125.185 29.7232 124.549 29.0019 124.091 28.0748C123.638 27.1477 123.411 26.0644 123.411 24.8248C123.411 23.5748 123.638 22.4836 124.091 21.5513C124.549 20.619 125.185 19.8951 125.997 19.3795C126.815 18.8638 127.765 18.606 128.849 18.606C129.932 18.606 130.88 18.8638 131.692 19.3795C132.51 19.8951 133.146 20.619 133.599 21.5513C134.057 22.4836 134.286 23.5748 134.286 24.8248C134.286 26.0644 134.057 27.1477 133.599 28.0748C133.146 29.0019 132.51 29.7232 131.692 30.2388C130.88 30.7545 129.932 31.0123 128.849 31.0123ZM128.849 29.356C129.672 29.356 130.349 29.1451 130.88 28.7232C131.411 28.3013 131.804 27.7466 132.06 27.0591C132.315 26.3716 132.442 25.6269 132.442 24.8248C132.442 24.0227 132.315 23.2753 132.06 22.5826C131.804 21.8899 131.411 21.33 130.88 20.9029C130.349 20.4758 129.672 20.2623 128.849 20.2623C128.026 20.2623 127.349 20.4758 126.817 20.9029C126.286 21.33 125.893 21.8899 125.638 22.5826C125.382 23.2753 125.255 24.0227 125.255 24.8248C125.255 25.6269 125.382 26.3716 125.638 27.0591C125.893 27.7466 126.286 28.3013 126.817 28.7232C127.349 29.1451 128.026 29.356 128.849 29.356ZM137.351 30.7623V14.7623H139.194V20.6685H139.351C139.486 20.4602 139.674 20.1946 139.913 19.8716C140.158 19.5435 140.507 19.2519 140.96 18.9966C141.418 18.7362 142.038 18.606 142.819 18.606C143.83 18.606 144.72 18.8586 145.491 19.3638C146.262 19.869 146.864 20.5852 147.296 21.5123C147.728 22.4394 147.944 23.5331 147.944 24.7935C147.944 26.0644 147.728 27.1659 147.296 28.0982C146.864 29.0253 146.265 29.744 145.499 30.2545C144.733 30.7597 143.851 31.0123 142.851 31.0123C142.08 31.0123 141.463 30.8847 140.999 30.6295C140.535 30.369 140.179 30.0748 139.929 29.7466C139.679 29.4133 139.486 29.1373 139.351 28.9185H139.132V30.7623H137.351ZM139.163 24.7623C139.163 25.6685 139.296 26.468 139.562 27.1607C139.827 27.8482 140.215 28.3873 140.726 28.7779C141.236 29.1633 141.861 29.356 142.601 29.356C143.371 29.356 144.015 29.1529 144.53 28.7466C145.051 28.3352 145.442 27.7831 145.702 27.0904C145.968 26.3925 146.101 25.6164 146.101 24.7623C146.101 23.9185 145.97 23.1581 145.71 22.481C145.455 21.7987 145.067 21.2597 144.546 20.8638C144.03 20.4628 143.382 20.2623 142.601 20.2623C141.851 20.2623 141.22 20.4524 140.71 20.8326C140.2 21.2076 139.814 21.7336 139.554 22.4107C139.293 23.0826 139.163 23.8664 139.163 24.7623ZM157.202 30.7623V14.7623H166.796V16.481H159.14V21.8873H166.077V23.606H159.14V30.7623H157.202ZM169.864 30.7623V18.7623H171.708V30.7623H169.864ZM170.802 16.7623C170.442 16.7623 170.132 16.6399 169.872 16.3951C169.617 16.1503 169.489 15.856 169.489 15.5123C169.489 15.1685 169.617 14.8742 169.872 14.6295C170.132 14.3847 170.442 14.2623 170.802 14.2623C171.161 14.2623 171.468 14.3847 171.724 14.6295C171.984 14.8742 172.114 15.1685 172.114 15.5123C172.114 15.856 171.984 16.1503 171.724 16.3951C171.468 16.6399 171.161 16.7623 170.802 16.7623ZM176.929 23.5435V30.7623H175.085V18.7623H176.866V20.6373H177.022C177.304 20.0279 177.731 19.5383 178.304 19.1685C178.877 18.7935 179.616 18.606 180.522 18.606C181.335 18.606 182.046 18.7727 182.655 19.106C183.265 19.4341 183.739 19.9341 184.077 20.606C184.416 21.2727 184.585 22.1164 184.585 23.1373V30.7623H182.741V23.2623C182.741 22.3196 182.496 21.5852 182.007 21.0591C181.517 20.5279 180.845 20.2623 179.991 20.2623C179.403 20.2623 178.877 20.3899 178.413 20.6451C177.955 20.9003 177.593 21.2727 177.327 21.7623C177.062 22.2519 176.929 22.8456 176.929 23.5435ZM192.485 31.0123C191.485 31.0123 190.603 30.7597 189.837 30.2545C189.071 29.744 188.472 29.0253 188.04 28.0982C187.608 27.1659 187.392 26.0644 187.392 24.7935C187.392 23.5331 187.608 22.4394 188.04 21.5123C188.472 20.5852 189.074 19.869 189.845 19.3638C190.616 18.8586 191.506 18.606 192.517 18.606C193.298 18.606 193.915 18.7362 194.368 18.9966C194.826 19.2519 195.175 19.5435 195.415 19.8716C195.66 20.1946 195.85 20.4602 195.985 20.6685H196.142V14.7623H197.985V30.7623H196.204V28.9185H195.985C195.85 29.1373 195.657 29.4133 195.407 29.7466C195.157 30.0748 194.8 30.369 194.337 30.6295C193.873 30.8847 193.256 31.0123 192.485 31.0123ZM192.735 29.356C193.475 29.356 194.1 29.1633 194.61 28.7779C195.121 28.3873 195.509 27.8482 195.774 27.1607C196.04 26.468 196.173 25.6685 196.173 24.7623C196.173 23.8664 196.043 23.0826 195.782 22.4107C195.522 21.7336 195.136 21.2076 194.626 20.8326C194.116 20.4524 193.485 20.2623 192.735 20.2623C191.954 20.2623 191.303 20.4628 190.782 20.8638C190.267 21.2597 189.879 21.7987 189.618 22.481C189.363 23.1581 189.235 23.9185 189.235 24.7623C189.235 25.6164 189.366 26.3925 189.626 27.0904C189.892 27.7831 190.282 28.3352 190.798 28.7466C191.319 29.1529 191.965 29.356 192.735 29.356ZM206.649 31.0123C205.493 31.0123 204.496 30.7571 203.657 30.2466C202.824 29.731 202.181 29.0123 201.728 28.0904C201.28 27.1633 201.056 26.0852 201.056 24.856C201.056 23.6269 201.28 22.5435 201.728 21.606C202.181 20.6633 202.811 19.9289 203.618 19.4029C204.431 18.8716 205.379 18.606 206.462 18.606C207.087 18.606 207.704 18.7102 208.313 18.9185C208.923 19.1269 209.478 19.4654 209.978 19.9341C210.478 20.3977 210.876 21.0123 211.173 21.7779C211.47 22.5435 211.618 23.4862 211.618 24.606V25.3873H202.368V23.7935H209.743C209.743 23.1164 209.608 22.5123 209.337 21.981C209.071 21.4498 208.691 21.0305 208.196 20.7232C207.707 20.4159 207.129 20.2623 206.462 20.2623C205.728 20.2623 205.092 20.4446 204.556 20.8091C204.024 21.1685 203.616 21.6373 203.329 22.2154C203.043 22.7935 202.899 23.4133 202.899 24.0748V25.1373C202.899 26.0435 203.056 26.8117 203.368 27.442C203.686 28.067 204.126 28.5435 204.688 28.8716C205.251 29.1946 205.905 29.356 206.649 29.356C207.134 29.356 207.571 29.2883 207.962 29.1529C208.358 29.0123 208.699 28.8039 208.985 28.5279C209.272 28.2466 209.493 27.8977 209.649 27.481L211.431 27.981C211.243 28.5852 210.928 29.1164 210.485 29.5748C210.043 30.0279 209.496 30.3821 208.845 30.6373C208.194 30.8873 207.462 31.0123 206.649 31.0123ZM214.423 30.7623V18.7623H216.204V20.5748H216.329C216.548 19.981 216.944 19.4992 217.517 19.1295C218.09 18.7597 218.735 18.5748 219.454 18.5748C219.59 18.5748 219.759 18.5774 219.962 18.5826C220.165 18.5878 220.319 18.5956 220.423 18.606V20.481C220.36 20.4654 220.217 20.442 219.993 20.4107C219.774 20.3742 219.543 20.356 219.298 20.356C218.715 20.356 218.194 20.4784 217.735 20.7232C217.282 20.9628 216.923 21.2961 216.657 21.7232C216.397 22.1451 216.267 22.6269 216.267 23.1685V30.7623H214.423Z" fill="white"/>
</svg>
